<?xml version="1.0" encoding="UTF-8" standalone="no"?>
<svg
   xmlns:dc="http://purl.org/dc/elements/1.1/"
   xmlns:cc="http://creativecommons.org/ns#"
   xmlns:rdf="http://www.w3.org/1999/02/22-rdf-syntax-ns#"
   xmlns:svg="http://www.w3.org/2000/svg"
   xmlns="http://www.w3.org/2000/svg"
   xmlns:sodipodi="http://sodipodi.sourceforge.net/DTD/sodipodi-0.dtd"
   xmlns:inkscape="http://www.inkscape.org/namespaces/inkscape"
   width="1195pt"
   height="837pt"
   viewBox="0 0 1195 837"
   version="1.1"
   id="svg2"
   inkscape:version="0.91 r13725"
   sodipodi:docname="logoescom.svg">
  <metadata
     id="metadata38">
    <rdf:RDF>
      <cc:Work
         rdf:about="">
        <dc:format>image/svg+xml</dc:format>
        <dc:type
           rdf:resource="http://purl.org/dc/dcmitype/StillImage" />
        <dc:title />
      </cc:Work>
    </rdf:RDF>
  </metadata>
  <defs
     id="defs36" />
  <sodipodi:namedview
     pagecolor="#ffffff"
     bordercolor="#666666"
     borderopacity="1"
     objecttolerance="10"
     gridtolerance="10"
     guidetolerance="10"
     inkscape:pageopacity="0"
     inkscape:pageshadow="2"
     inkscape:window-width="1920"
     inkscape:window-height="1027"
     id="namedview34"
     showgrid="false"
     inkscape:zoom="0.54533021"
     inkscape:cx="293.94039"
     inkscape:cy="508.28075"
     inkscape:window-x="-8"
     inkscape:window-y="22"
     inkscape:window-maximized="1"
     inkscape:current-layer="svg2"
     showguides="false">
    <sodipodi:guide
       position="-302.89931,556.00695"
       orientation="1,0"
       id="guide3362" />
  </sodipodi:namedview>
  <path
     d="m 619.3559,178.97413 494.4333,0 c 1.8033,0.58428 3.451,2.0417 3.9783,4.25409 1.337,4.06373 -1.7702,8.81016 -5.4208,8.47536 -163.8753,0.006 -327.75061,0.006 -491.62591,0 -3.4788,0.24947 -6.52483,-4.11622 -5.44845,-8.08803 0.47161,-2.34369 2.15829,-4.04403 4.08356,-4.64142 z"
     id="path6"
     inkscape:connector-curvature="0"
     style="fill:#0a5289" />
  <path
     d="m 748.5611,220.48004 c -1.80865,0.0573 -3.38101,1.27915 -4.96748,2.17773 -61.60859,35.67396 -123.27196,71.21624 -184.88054,106.88366 -11.1133,6.95885 -20.18533,18.78912 -24.22451,32.96941 -1.30941,4.33288 -1.88627,8.90886 -2.51321,13.43867 l 0,8.00924 c 0.36063,7.22803 1.76974,14.40947 4.45511,20.93505 4.71609,11.73813 13.31046,20.98879 23.2475,26.33267 21.22787,12.19768 42.22862,24.93328 63.41212,37.22945 19.45243,11.48211 38.91595,22.95109 58.39611,34.36755 21.45538,12.80167 43.06557,25.21559 64.4932,38.08289 1.06527,0.66963 2.25263,1.04384 3.46772,0.98476 75.10765,-0.0525 150.22105,0.0196 225.3287,-0.0328 2.763,-0.46612 5.01584,-2.7499 7.58475,-3.91846 58.64573,-34.07869 117.28593,-68.16394 175.93733,-102.21638 4.4054,-2.65225 9.0774,-4.8193 13.0056,-8.44314 4.3999,-3.90616 8.5939,-8.19308 12.1006,-13.2284 6.5359,-8.90865 11.1188,-20.12816 11.5958,-32.03699 l 0,-3.75535 c -0.3494,-13.05771 -4.8044,-25.99725 -12.6552,-35.25383 -3.5787,-4.39852 -7.7629,-8.10117 -12.3347,-10.93065 -11.0077,-6.19076 -21.949,-12.53209 -32.8904,-18.88042 -52.2872,-30.04118 -104.5579,-60.13495 -156.82335,-90.23529 -1.80309,-0.93878 -3.49542,-2.49426 -5.54828,-2.46801 -75.27397,-0.006 -150.54779,0.013 -225.82189,-0.009 -0.12274,-0.006 -0.2444,-0.009 -0.36498,-0.003 z m 3.29258,15.88617 c 0.11577,-0.003 0.23286,-0.002 0.35112,0.005 28.59606,0.0525 57.19228,-0.0528 85.78835,0.0523 -2.8352,1.32612 -5.37095,3.35532 -8.08408,4.96372 -36.94075,23.56819 -74.04238,47.01145 -109.08004,74.43328 -13.97623,11.1473 -27.80284,22.79396 -39.8205,36.85608 -4.79375,6.02664 -9.4982,12.36838 -12.50539,19.92464 -2.16386,5.51457 -3.30664,11.90166 -1.90292,17.88235 1.77548,7.64816 5.99774,14.12182 10.76375,19.53791 9.19359,10.2282 20.25643,17.75822 31.53615,24.29035 9.92597,5.659 20.25139,10.2996 30.70997,14.38957 19.54675,7.47748 39.79293,12.84166 60.33283,14.28596 19.12507,1.11603 38.03335,-5.05522 55.21106,-14.65319 21.3388,-11.73814 40.56904,-28.24902 58.16287,-46.61122 4.07245,-4.35912 8.13986,-8.7244 11.99051,-13.36583 4.62171,-5.06814 8.01111,-11.69937 9.53696,-18.94706 0.16641,-1.10293 0.35507,-2.19886 0.58254,-3.28864 0.40508,-4.63487 0.21675,-9.30276 -0.55998,-13.86541 -2.12495,-10.84531 -7.30191,-20.50257 -13.50499,-28.73502 -3.13482,-4.11623 -6.45246,-8.06792 -10.11446,-11.52766 3.02393,-0.1838 6.03146,-0.67678 9.06644,-0.76214 6.71888,-0.35451 13.39362,1.0709 19.94608,2.67933 11.54061,2.99361 22.78703,7.38516 33.84482,12.24979 17.74917,7.88452 35.02093,17.27855 51.53263,28.30113 5.038,3.34155 10.3312,6.91968 13.4383,12.91347 3.0017,5.659 2.6128,12.99923 0.4379,18.94708 -2.8797,7.95017 -7.8782,14.91475 -14.3087,19.11633 -54.33484,38.62821 -108.91379,76.79687 -163.40948,115.11653 -2.20272,1.65437 -4.72675,2.86232 -6.46902,5.25196 -34.76575,0.0985 -69.53223,0.0263 -104.29802,0.0328 -21.3999,-12.52593 -42.69401,-25.3079 -64.14382,-37.71566 -21.79939,-13.04459 -43.77629,-25.66817 -65.58119,-38.71275 -17.41064,-10.22164 -34.83811,-20.39095 -52.19325,-30.73731 -2.81855,-1.78567 -5.89736,-2.98768 -8.53837,-5.16069 -7.751,-5.79694 -13.71597,-15.56561 -14.6259,-26.52251 l -0.26614,-0.47186 c -0.76011,-9.36819 0.58256,-19.20987 5.02124,-27.1666 3.89491,-7.15583 9.53202,-12.94591 16.03465,-16.5632 60.12163,-34.74831 120.24326,-69.5028 180.37601,-104.22484 1.53445,-0.82473 3.00526,-2.13986 4.74207,-2.19824 z m 204.22682,0.006 c 5.44777,-0.013 10.89441,-0.009 16.33719,0.0913 15.69641,8.8036 31.30911,17.86325 46.92771,26.88351 44.6972,25.67555 89.3507,51.43644 134.0535,77.10541 5.0656,3.21683 10.6364,5.38984 15.2137,9.61767 6.2308,5.43578 10.9134,13.57612 12.2505,22.66858 0.7045,3.87333 0.6657,7.85785 0.4438,11.79026 l -0.2721,0.48006 c -0.9543,7.54314 -4.6439,14.16718 -8.822,19.79336 -3.5509,4.57577 -7.5728,8.72419 -12.0892,11.90821 -59.0343,34.3741 -118.1294,68.59785 -177.15796,102.97855 -3.45108,2.10733 -7.04632,3.85997 -10.43088,6.12488 -30.55461,0.0262 -61.11491,0.13151 -91.6695,-0.0523 17.81561,-12.178 35.37048,-24.88161 53.12521,-37.18434 30.11626,-21.25733 60.29925,-42.37681 90.35443,-63.74572 6.0587,-4.55609 12.689,-8.30509 17.727,-14.50242 6.5081,-8.17336 11.5459,-18.49308 12.5391,-29.81105 1.0319,-9.97218 -2.0475,-20.24017 -7.7788,-27.56666 -5.4707,-7.10986 -12.8835,-11.38303 -19.8467,-16.04414 -20.7673,-13.03144 -42.40572,-24.23146 -64.82089,-32.67402 -11.46289,-4.12279 -23.16423,-7.75976 -35.14858,-8.79702 -11.16329,-0.5252 -22.36571,0.93878 -33.28483,3.61072 -20.70072,7.65474 -40.37454,18.87384 -58.88931,32.17444 -10.50856,7.58254 -20.52899,16.17608 -29.61159,26.03007 -7.09076,7.91077 -13.69846,16.82617 -17.64886,27.48767 -2.8241,7.49716 -3.71738,16.04517 -2.02515,24.05443 2.75196,16.05786 12.20043,29.48342 23.69653,38.12289 -7.93964,0.51864 -15.85693,-0.57793 -23.7078,-1.81869 -10.84698,-1.89727 -21.58852,-4.62829 -32.12481,-8.2062 -11.84012,-3.86676 -23.41374,-8.89531 -34.61024,-14.88913 -10.39203,-5.73777 -20.70637,-12.08608 -29.5171,-20.87655 -3.61195,-3.84707 -7.26311,-8.00349 -9.20501,-13.38019 -1.3094,-4.47733 0.78231,-8.90148 2.74641,-12.59756 4.27776,-7.46435 9.84289,-13.74741 15.60206,-19.59023 13.69883,-13.92426 28.80708,-25.71474 44.03723,-37.11149 32.56866,-24.15248 66.57954,-45.40345 100.34668,-67.07439 7.29039,-4.74646 14.73064,-9.368 21.57161,-14.92192 25.1117,-0.16414 50.22907,-0.0196 75.34628,-0.0656 5.44568,0.0296 10.89459,0 16.34237,-0.013 z m -63.00198,79.90273 c 0.78387,0.0488 1.50328,0.85015 2.17334,1.33761 8.31129,7.09014 16.17319,15.30967 21.71044,25.61666 2.74078,5.08784 4.86004,10.83855 5.17631,16.92425 0.22747,5.96099 -2.06942,11.74452 -5.65917,15.84103 -15.43544,18.36218 -32.65146,34.72207 -51.45471,48.02268 -9.74834,6.83411 -19.99625,12.74318 -30.7767,16.91193 -1.06527,0.30198 -2.14182,1.20794 -3.25704,0.7878 -9.16583,-3.87332 -17.92663,-9.79533 -24.44036,-18.47419 -4.91027,-6.50588 -8.11739,-14.93467 -8.38925,-23.69233 0.56038,-7.93702 4.45584,-14.81134 8.57825,-20.83143 7.29603,-10.24788 16.21184,-18.69638 25.49973,-26.28546 18.54246,-15.06003 38.84379,-27.03512 60.03289,-35.9175 0.27601,-0.19039 0.54488,-0.25738 0.80627,-0.24105 z"
     id="path8"
     style="fill:#0a5289;fill-opacity:1"
     inkscape:connector-curvature="0" />
  <path
     d="m 614.31246,579.64002 c 167.77023,0.006 335.54597,-0.006 503.31624,0.006 0,3.22996 0,6.45336 0,9.68331 -167.77027,-0.013 -335.54047,0.0328 -503.31068,-0.0198 0,-3.2234 0,-6.44679 0,-9.67017 z"
     id="path18"
     inkscape:connector-curvature="0"
     style="fill:#0a5289" />
  <path
     d="m 1008.8315,623.08691 c 3.601,-0.71558 7.2906,-0.45954 10.9193,-0.32168 1.631,0.0854 2.4522,1.88416 3.0848,3.40721 5.6481,12.97894 11.4463,25.85937 17.1775,38.79234 2.691,6.22358 5.7369,12.29616 7.4682,19.02525 1.4093,-2.78354 2.0474,-5.9741 3.3234,-8.82987 7.3293,-16.47805 14.7364,-32.90356 21.9602,-49.4407 0.6159,-1.62155 1.8087,-3.10521 3.4344,-3.01987 2.9961,-0.0525 6.009,-0.17069 9.0049,0.0723 1.2207,0.0394 1.5701,1.41804 1.5316,2.63914 -0.082,33.4747 -0.023,66.95598 -0.034,100.4307 0.016,0.94535 -0.1218,1.92353 -0.7214,2.61941 l -8.7885,0 c -0.8768,-2.29117 -0.5824,-4.82523 -0.5993,-7.25428 0,-20.56799 0,-41.12944 0,-61.69747 -0.1559,-7.61534 0.5051,-15.20442 0.6713,-22.81321 -1.1262,5.44891 -3.5063,10.34637 -5.5538,15.36198 -6.7467,15.62462 -13.6544,31.1573 -20.5231,46.70313 -1.2319,3.22995 -5.8536,3.19057 -7.1019,-0.006 -6.6692,-15.17818 -13.4271,-30.31039 -20.0793,-45.50171 -2.1639,-5.27821 -4.6718,-10.45797 -5.7815,-16.22857 0.3385,29.1681 0.099,58.34276 0.1997,87.51088 0.028,1.35895 -0.016,2.80978 -0.7712,3.92584 l -8.622,0 c -0.2663,-1.06353 -0.6103,-2.12049 -0.5771,-3.23654 0.023,-30.65178 0,-61.29698 0.016,-91.94221 0.023,-3.40721 -0.2106,-6.83411 0.3664,-10.1954 z"
     id="path20"
     inkscape:connector-curvature="0"
     style="fill:#0a5289" />
  <path
     d="m 654.40467,623.92067 c 2.58551,-0.94535 5.30419,-0.57116 7.96738,-0.61711 17.76574,-0.006 35.53702,0.006 53.3083,-0.006 0.94877,-0.0328 2.3192,0.19696 2.51339,1.56246 0.21085,2.46842 0.50491,5.23885 -0.71574,7.43154 -16.90018,-0.013 -33.80039,-0.006 -50.70611,0 -1.45368,-0.33481 -2.77416,1.18824 -2.50787,2.91483 -0.0223,15.76903 0.0167,31.54463 -0.0167,47.31365 -0.0554,1.26048 0.28298,2.46842 0.62141,3.65669 11.37408,0.26916 22.77032,-0.39389 34.12775,0.45955 4.91026,0.15748 9.84273,-0.37421 14.73634,0.12484 0.36619,2.42248 0.74347,5.00251 0.0998,7.3987 -0.4827,1.22109 -1.73106,1.05698 -2.67428,1.1095 -15.2468,-0.0854 -30.49914,0.2429 -45.74594,0.006 -0.66025,0.81404 -1.31494,1.74627 -1.15404,2.97392 -0.0114,6.60434 -0.005,13.2087 0.0167,19.81304 0.19973,0.37419 0.60477,1.11604 0.8045,1.48369 4.46086,0.32823 8.92725,0.0854 13.38811,0.15749 13.32151,0 26.64859,0 39.97012,0 1.13741,-0.13785 2.71867,0.4661 2.58551,2.1336 -0.0498,2.173 0.5715,4.7793 -0.67689,6.62404 l -65.25384,0 c -0.19417,-0.28228 -0.58258,-0.84031 -0.77675,-1.1226 -0.0277,-10.68774 0,-21.38207 -0.0167,-32.06981 -2.47455,-0.0986 -4.97129,0.21664 -7.4292,-0.2101 -0.1609,-0.20351 -0.47715,-0.60397 -0.63251,-0.80749 -0.41056,-2.51437 0.22749,-5.10096 0.92657,-7.47091 2.36914,-0.66962 4.7993,0.0656 7.17398,-0.53832 -0.0113,-20.7781 -0.14416,-41.54963 0.0665,-62.32115 z"
     id="path22"
     inkscape:connector-curvature="0"
     style="fill:#0a5289" />
  <path
     d="m 750.09105,624.30799 c 10.61396,-1.70031 21.59964,-1.81192 31.975,1.65437 5.77581,1.91699 11.2409,5.78374 14.73081,11.66594 1.58681,2.85576 3.4455,6.02007 2.81853,9.6308 -2.6743,1.29985 -5.68703,1.85786 -8.53332,1.10945 -1.59792,-0.4267 -2.32473,-2.27802 -3.00719,-3.83391 -1.75327,-4.2344 -4.93245,-7.48406 -8.53887,-9.38789 -6.97425,-3.74858 -14.81402,-3.75516 -22.3209,-3.41377 -4.50525,0.47266 -9.12146,1.18168 -13.19392,3.66981 -3.85053,2.25834 -6.88548,6.59121 -7.69552,11.63309 -0.85445,4.57577 0.62696,9.5717 3.62305,12.6047 3.56204,3.70921 8.23926,5.35047 12.72784,6.81445 8.4723,2.62597 17.14988,4.18188 25.64991,6.66341 7.47914,2.25179 15.45764,5.3242 20.46777,12.7032 6.09205,9.53233 4.52188,24.60547 -3.32899,32.13546 -7.23501,7.0114 -16.76704,9.38134 -25.84409,10.50395 l -16.33982,0 c -4.18897,-0.57115 -8.37797,-1.33269 -12.42825,-2.75072 -6.2474,-2.19926 -12.43379,-5.88221 -16.48961,-12.10578 -1.87533,-3.01987 -3.67855,-6.4468 -3.52872,-10.34638 2.9184,-1.98261 6.66908,-2.77696 9.84826,-1.25389 1.44258,1.91039 2.08062,4.47073 3.46771,6.44022 3.58421,5.53425 9.12698,8.69856 14.76963,10.16912 8.30584,2.14016 16.96121,2.08764 25.317,0.38076 4.80484,-1.10292 9.76504,-3.00675 13.31597,-7.18862 2.61881,-2.96737 4.10022,-7.26743 3.95042,-11.5609 0.25522,-5.10752 -2.36914,-9.87369 -5.90342,-12.57845 -5.58716,-4.42478 -12.31173,-6.03977 -18.78108,-7.64162 -10.0813,-2.59314 -20.51216,-4.24095 -29.90546,-9.56514 -4.33324,-2.46844 -8.36133,-6.32204 -10.22001,-11.69876 -2.91289,-8.21276 -1.3427,-18.42782 4.03919,-24.71706 5.18211,-5.94129 12.37829,-8.52131 19.35808,-9.73584 z"
     id="path24"
     inkscape:connector-curvature="0"
     style="fill:#0a5289" />
  <path
     d="m 829.47646,629.52058 c 9.23789,-5.8822 20.07387,-7.68756 30.41595,-6.1448 9.71505,1.5559 19.30818,6.57151 25.85514,15.39481 1.53688,2.17301 3.50093,4.4051 3.71184,7.37903 -0.48269,3.04612 -3.76737,4.14904 -5.96993,3.05925 -4.06692,-1.80535 -6.20308,-6.63717 -9.60416,-9.5323 -6.18636,-5.50144 -14.1317,-7.65476 -21.77165,-7.41183 -9.16028,-0.0328 -18.65903,4.07026 -24.61239,12.56531 -5.83682,8.00269 -8.15603,18.76921 -8.42234,29.14185 -0.21639,11.43617 2.20268,23.39751 8.48338,32.33242 5.96999,8.84956 15.62958,13.58946 25.1006,13.50411 8.20042,0.36107 16.57845,-2.60628 22.97555,-8.76422 2.35258,-2.25178 4.21678,-5.08783 6.26963,-7.69413 1.4148,-1.66748 3.05722,-3.48598 5.17113,-3.59759 2.04182,0.0589 3.71184,1.76598 4.74379,3.73545 -1.41479,3.86677 -3.86722,7.00482 -6.29188,10.01813 -6.90755,8.39002 -16.37858,13.56321 -26.17141,14.95498 l -11.9733,0 c -9.22684,-1.28018 -18.25393,-5.77061 -24.99515,-13.43191 -7.22391,-7.96986 -11.6903,-19.07776 -13.13844,-30.56643 -1.38707,-10.55645 -0.29959,-21.47398 2.65766,-31.5315 2.9628,-10.14941 9.54867,-18.52629 17.56598,-23.41063 z"
     id="path26"
     inkscape:connector-curvature="0"
     style="fill:#0a5289" />
  <path
     d="m 943.1876,623.2853 c -3.74838,-0.0226 -7.49919,0.2505 -11.21103,0.7601 -10.26447,1.59528 -20.60671,6.04592 -28.11353,14.74448 -7.16294,8.21277 -11.01896,19.88587 -11.62375,31.55181 -0.16074,6.21044 -0.24403,12.49988 0.98227,18.59216 1.853,10.51049 6.59663,20.42974 13.76493,27.11942 8.00072,7.58909 18.16485,11.33112 28.27395,12.40778 l 14.17602,0 c 8.50546,-0.87972 16.93349,-3.76213 24.24619,-9.0535 5.64811,-4.09652 10.45295,-9.85994 13.70439,-16.70063 4.96014,-10.2282 6.43054,-22.43307 5.38183,-34.04649 -0.83224,-10.48423 -4.33837,-20.81686 -10.51926,-28.48472 -5.46517,-6.98512 -12.87191,-11.47535 -20.54535,-14.03567 -6.0303,-1.95718 -12.26926,-2.81704 -18.51666,-2.85474 z m -0.0991,8.95502 c 4.8943,0.0377 9.77984,0.63535 14.47167,2.3685 7.07401,2.46842 13.6709,7.47011 17.86542,14.75065 2.88532,4.95654 4.57722,10.76057 5.5094,16.64934 1.32612,9.88025 0.66611,20.21968 -2.3909,29.58129 -3.05724,9.43384 -9.69322,16.9183 -17.59952,20.57499 -3.40112,1.58873 -6.97982,2.48134 -10.56957,3.20348 -7.61235,0.61055 -15.45801,0.84731 -22.79841,-2.00845 -7.11293,-2.59973 -13.63147,-7.81907 -17.84824,-15.14557 -5.12112,-8.74451 -6.7913,-19.74719 -6.28085,-30.21827 0.48821,-9.94592 3.17882,-20.2404 9.2986,-27.38307 6.18084,-7.5497 15.02467,-11.07488 23.68001,-12.13184 2.21068,-0.16009 4.43775,-0.25823 6.66239,-0.24105 z"
     id="path28"
     style="fill:#0a5289;fill-opacity:1"
     inkscape:connector-curvature="0" />
  <path
     inkscape:connector-curvature="0"
     id="path16"
     style="fill:#740232;fill-opacity:1;fill-rule:evenodd;stroke:none"
     d="m 388.15625,754.65223 c 1.16786,1.56486 1.75456,3.21372 1.75456,4.95155 0,8.4173 -14.73383,15.27219 -32.90739,15.27219 -18.1689,0 -32.98243,-6.85489 -32.98243,-15.27219 0,-13.5418 29.04545,-16.49352 36.16351,-15.62562 7.95876,0.86793 14.99248,2.42932 22.43908,6.24898 l 0,-7.20437 c -3.59908,-1.38837 -8.11769,-2.68727 -11.80625,-3.29672 -15.90681,-1.99633 -37.34162,-1.99633 -51.32469,10.06611 -0.41942,0.26003 -0.91948,0.61141 -1.50619,1.12993 -7.20289,6.24644 -6.36263,12.06592 -4.2702,17.09899 1.59567,3.81366 8.45555,8.50127 11.88548,10.67406 l 0,0.0877 c 0.0884,0 0.25166,0.0853 0.34488,0.171 0.99914,0.60947 1.58589,0.95693 1.58589,0.95693 l 0,-0.17243 c 14.56977,7.37483 28.13529,6.42142 43.12265,4.94554 17.58217,-3.12617 30.39226,-12.06241 30.39226,-22.48196 0,-7.89483 -7.69966,-13.88334 -12.88931,-16.74758 0,2.69125 0,6.16294 0,9.19815 z M 170.1182,452.1051 l 0,22.21954 c 2.59623,-0.26189 5.19012,-0.43712 7.95318,-0.43712 2.42753,0 4.8569,0.0853 7.28583,0.34762 l 0.41942,-23.17343 -15.65655,1.04287 z m -3.01564,18.66032 0,-18.31485 c -3.17875,1.99631 -19.25661,13.62729 -19.17319,26.12273 -1.92609,18.57485 15.65843,31.50723 20.18119,32.80614 17.75136,4.51259 79.62594,25.5148 82.97571,52.07645 4.35127,46.17349 -42.03588,72.21069 -73.43245,72.3792 l -2.3455,26.29974 c 0,0 10.04889,20.74563 42.78899,32.37513 20.34572,4.33964 32.48379,3.12424 40.10516,0.51995 8.20622,-3.2987 19.84752,-10.85054 25.28556,-19.26582 1.0094,-3.55916 1.67535,-6.94586 2.26208,-9.63314 -0.42408,-20.31125 -14.65461,-54.59475 -27.29693,-83.49424 2.76306,-14.14778 1.75926,-28.12055 -1.84265,-36.8003 -4.52278,-9.2877 -6.1944,-13.62529 -20.84901,-24.30138 -21.43295,-15.62164 -61.28785,-24.81987 -69.91352,-34.36748 -3.34929,-4.59815 -2.84647,-14.66973 1.25456,-16.40213 z m 118.4835,-114.64948 c 3.42995,3.99165 6.27316,7.80931 8.7883,12.14895 20.76885,5.98501 39.26536,12.75541 55.18244,18.57139 -0.34485,-42.17833 -6.7853,-85.0526 -25.28695,-125.7546 l -38.68379,95.03426 z m -4.10101,325.20166 c -5.70181,7.28744 -15.9152,12.84244 -23.61674,16.1416 l 0,0 c -50.74216,13.19038 -84.31737,-29.67991 -85.15388,-34.28197 -0.83931,-4.33962 1.84267,-23.60598 2.34365,-27.07966 -1.50714,-0.0877 -3.43135,0 -4.93988,-0.0877 -0.16779,2.43478 -2.68151,25.34381 -2.68151,27.60207 7.95691,13.97135 11.05226,18.05099 29.14005,29.50944 16.91485,8.76332 42.0331,14.14579 62.12669,7.55138 0.0884,0 2.93036,-1.30291 0.34021,-0.0895 9.4589,-4.16514 12.97366,-6.94338 15.57314,-9.72017 2.92803,-2.69127 7.02904,-8.9402 6.87014,-9.54566 z m 88.41281,55.80419 c 3.85264,0.60793 7.53609,1.56337 10.97068,2.69324 l 1.59569,-1.21935 0,0.0894 -0.0886,0 0,-43.82969 -0.0838,0 0,-0.17475 -27.54905,0 15.1565,42.44128 z m 22.60777,8.07027 c 3.09674,1.99786 5.77638,4.25411 7.87397,6.77093 l 5.6072,-6.77093 -13.48117,0 z m 11.5523,13.01937 c 0.67108,1.82534 1.08863,3.81965 1.08863,5.81751 0,14.14776 -18.25323,25.86272 -41.78051,27.6841 l -18.41728,14.4097 -30.14388,0 1.08862,15.36115 -7.36691,12.75742 -56.77253,-0.0864 -3.1806,-5.81599 -57.01999,-0.34764 -3.43322,-11.97498 -30.48033,-1.04242 -18.586,-9.89363 -0.66829,-13.01739 1.5048,-14.32277 -37.84492,-0.0877 -8.289177,-14.66422 -2.344092,-3.64618 0,-14.75769 6.277803,-17.87397 -23.023009,-0.78439 C 69.726708,732.6988 59.006279,738.25031 38.075813,738.33584 2.6559659,737.29692 -3.2878011,718.80753 0.98224901,706.3121 4.164634,699.80318 15.132011,697.71787 17.394275,696.67695 l 0,-226.17333 21.602159,-28.81399 4.353557,1.30286 21.602303,28.81204 0,182.86608 5.943678,0.0877 c -3.347932,-7.54794 -6.528551,-15.36321 -9.460778,-23.34804 l -17.751666,18.92284 -0.250728,0.17421 1.757702,3.90319 14.234532,0.17439 0,-178.87397 -19.927713,-26.82158 -17.668161,22.2215 0,224.87242 c 11.223365,-1.30286 21.85419,-0.86793 32.909083,0.60596 l -1.926085,-11.71451 20.261822,-22.65299 -8.121883,-0.25816 c 0,-0.0877 0,33.06612 0,36.88575 -1.507116,-0.26191 -3.936031,-0.69292 -5.527063,-0.86792 l 0,-36.19284 -27.297107,-0.78044 -1.421187,-3.90666 0,0 -0.670089,-2.08382 -5.444664,-15.27369 0.252583,0.1744 -1.089094,-3.30066 3.935943,-13.44686 22.188138,-28.55949 c -0.419414,-1.4719 -0.750776,-3.03526 -1.170654,-4.60014 l -37.511034,-2.42929 -2.5127949,-5.03306 -0.7550555,0.0877 -3.5169569,-18.83532 6.2817813,-10.58658 26.122728,-27.25268 c -0.668075,-5.90293 -1.254676,-11.89146 -1.840744,-17.96491 l -22.439279,-13.80028 -0.588065,-0.0854 -10.3827712,-3.99414 0,-17.18452 9.3786632,-7.55185 9.46217,-4.6856 12.979088,-16.664 c 0,-1.99435 0.166903,-4.94561 0.250247,-6.94191 l -28.8020675,2.86289 c 0,0 9.3766655,-7.80984 24.4490115,-18.74586 l -18.085706,-10.32646 -7.4524347,-7.8133 2.0097327,-21.26068 11.050384,-2.43575 22.691806,-0.343 c 1.089129,-6.94438 2.343324,-13.79927 3.768968,-20.56967 l 0,52.85538 c 1.759201,-1.21241 3.51644,-2.43031 5.273822,-3.64817 l 0,-33.3251 18.421488,-2.77875 0,24.21836 c 1.759236,-1.12838 3.514745,-2.17227 5.359286,-3.29571 l 0,-21.70311 16.075969,-2.34129 0,14.75372 c 1.757381,-1.04389 3.516635,-1.99833 5.35931,-2.95274 l 0,-12.67088 21.434781,-3.12177 0,5.12008 c 1.75553,-0.78045 3.51663,-1.5609 5.35742,-2.34131 l 0,-3.55921 14.40018,-2.26177 c 10.88725,-3.99163 21.77126,-7.0239 32.23771,-8.84827 l 0,-23.60693 c -2.59436,-0.34812 -6.19442,-1.3869 -6.94983,-4.25509 -1.67582,-5.90052 -1.17065,-10.58806 2.76493,-14.66925 -0.75545,-3.21118 -4.35546,-5.63703 -7.45268,-6.93938 l 0,-24.73537 19.84474,-4.60307 6.53041,19.0983 6.95122,0.0842 -6.53366,-20.39571 5.27584,-1.12838 22.77511,69.43395 c 8.87544,1.12837 17.66606,0.60645 26.37281,3.03724 l 2.93456,-5.55255 c -7.79054,-0.95937 -15.4916,-2.25679 -23.2784,-1.47638 l -21.93765,-67.00316 6.0271,-1.47637 4.18816,13.45135 63.21624,-13.97328 7.37063,-17.96494 19.25756,-5.12007 -43.45728,113.08868 c 2.59623,0.51695 5.27354,1.12837 7.95552,1.65032 l 43.53975,-116.64784 8.95747,-2.17228 c 2.34643,7.5558 1.84452,13.01886 -2.00812,21.6981 l -39.69272,99.72181 c 2.26163,0.52196 4.60804,1.1284 6.86969,1.73484 l 41.27859,-103.36549 c 3.2659,-7.55086 2.9327,-14.23178 -0.3402,-21.2607 l 80.97179,-19.09331 22.69214,13.01886 33.57846,-8.24674 -34.92062,-20.56975 -264.33759,64.92036 0,-23.52245 8.37306,-2.25682 0,-15.96661 -16.4115,-5.55749 0,-6.85495 16.4115,5.98503 0,-65.00486 -16.4115,-8.50524 0,-6.93943 16.4115,8.76377 0,-51.901487 3.60193,-1.908843 0,-5.120059 -20.01343,-10.414079 0,-6.854919 20.01343,10.672563 0,-53.19888 -20.26416,-12.327897 0,54.158282 -26.79456,10.071116 0,-61.450648 26.79456,-12.7603672 70.4182,43.7441652 0,51.638023 4.68772,2.69425 0,-34.632462 50.74451,-16.662579 43.28671,26.296225 0,76.288836 c -0.67108,17.96497 -17.66699,24.99383 -37.84867,30.81482 l 0,25.94824 40.61219,-10.2451 0,-168.285813 30.80984,-11.542517 29.2244,17.273966 0,-28.816479 28.72203,-10.3295983 0,0.9594051 36.7549,19.6103132 0,168.370323 20.18213,12.7604 0,27.5141 -42.45674,9.19622 48.81939,27.68806 -0.50706,22.04609 -3.01238,8.33127 -25.95292,25.77429 -0.34019,2.69423 3.42995,-0.34812 38.09704,17.79094 0,33.15611 -35.33306,15.19115 0,20.91472 36.09361,14.23127 0,32.72063 -34.83626,6.68592 0.16779,23.86394 31.3961,23.95593 -1.00381,31.59221 -35.16436,-1.99979 -4.94125,18.83536 27.37985,32.54369 -0.41942,26.21023 -4.85642,4.60405 -36.67568,-3.21171 0.0838,9.02722 24.95425,39.57507 0,8.33227 -8.79856,21.87009 -40.35401,0 13.6452,39.05312 0,6.25038 -10.2996,9.89316 z m -52.1598,33.5866 c -9.71337,-0.60546 -18.59112,-2.94728 -25.70454,-6.336 l 0.5816,5.73054 -11.46327,7.63683 27.87713,0 8.70908,-7.03137 z m -35.41787,-42.87231 c 2.8432,-2.51824 6.36261,-4.77456 10.46363,-6.68339 l 0,-283.54279 6.19393,-11.88952 -0.0791,0 5.02095,-9.20015 -0.0791,0 14.90302,-28.29009 8.62425,-1.73981 26.62959,45.13506 0,149.97043 0.16315,0 0,0.0853 29.9747,20.13628 0.50193,0 0,5.72604 -30.47663,0 0,0.17475 -0.16315,0 0,56.76354 -5.78148,0 0,-229.47653 -24.45189,-41.66037 -12.21869,22.04654 0,0 -6.61615,11.88952 0,0 -5.69158,10.3286 -1.17345,256.81263 0,14.31829 -5.36346,2.60425 c -2.58968,6.25045 -8.11769,5.6405 -12.13902,11.89294 l 1.75972,4.59808 z m 45.71747,6.42346 -31.57037,0 c 2.84835,-5.0331 13.14842,-8.85224 25.37178,-8.85224 14.40063,0 26.12721,5.20556 26.12721,11.71449 0,6.42542 -11.72658,11.63096 -26.12721,11.63096 -13.73467,0 -25.03344,-4.77254 -26.04287,-10.76303 l 32.24146,0 z m 25.87369,-16.92454 0.0838,0 0,-43.56921 0.16315,0 0,-0.17474 2.0081,0 0,0 1.17346,1.38837 13.64519,42.35582 -17.07514,0 z m -5.78104,-50.51111 0,-1.9978 -18.00486,-19.87427 c -3.67832,7.55185 -7.53563,14.92823 -11.63197,21.87207 l 29.63683,0 z m -38.26107,-241.62591 5.18451,-9.37321 3.9421,-0.34578 c 0.33089,2.17083 0.50192,6.1615 0.41944,8.94022 l -9.5442,0.77845 z m -9.71336,-8.4158 -5.44319,9.45671 -69.16318,5.12204 c -1.33607,9.46065 -3.68391,20.22173 -6.69909,27.2511 l 59.11523,170.02521 c 0.0838,0.17244 0.0838,0.26003 0.0838,0.43293 -0.50189,0.95338 -1.0886,1.99431 -1.59053,3.03475 -1.75971,1.04287 -4.18538,1.30137 -4.77723,-0.43479 l -57.601,-163.33795 c -2.67919,4.42963 -6.28343,13.19433 -10.55313,16.1461 -1.17114,-2.17079 -5.69344,-8.68371 -7.28399,-10.06613 13.56505,-19.53033 21.51869,-52.77138 15.15793,-79.8515 l 12.89115,-1.21542 c 1.67537,10.06815 3.09907,17.79247 1.75927,28.99047 l 74.10349,-5.55352 z m -293.311726,264.275 c -6.697344,-0.0877 -26.375293,-0.34951 -28.385026,6.50893 -2.091293,6.94338 8.291515,14.32027 26.878301,14.14579 7.619463,0 21.686985,-0.69149 25.79033,-9.3752 2.260211,-5.46602 -5.778702,-8.32829 -9.378753,-9.28322 l 0.08381,0.083 c -5.440831,-1.30091 -11.638857,-1.99183 -14.988286,-2.07934 z m 27.800222,23.60791 0.163158,0 c -0.668288,0.52047 -1.33843,0.95545 -2.09338,1.38646 -3.179228,1.99428 -6.110991,2.77474 -6.110991,2.77474 l 0,0 c -5.862134,2.00031 -13.146008,2.9537 -22.524654,2.9537 -27.213836,0.17244 -36.8410341,-16.75003 -32.4855167,-25.60227 4.4365607,-8.85269 27.5459287,-8.50524 37.3440957,-8.3303 2.927912,0.0835 7.869763,0.43294 12.225244,1.21345 l 0,0.0877 c 7.617645,1.21539 17.248963,3.21175 19.173175,10.76159 0.247002,0.69293 0.419432,1.38637 0.419432,2.08332 0,0.68949 -0.08381,1.64837 -0.247001,2.5163 -0.588582,4.68358 -3.099522,7.98478 -5.862581,10.15561 z M 17.05824,709.2612 l 25.538139,0 0,2.51679 -25.11662,0 c 2.005755,3.5612 9.96127,6.85842 21.934235,6.85842 8.87373,-0.0853 16.661931,-2.34581 20.17855,-4.25267 l -0.167795,-6.42342 c -5.022825,-2.5183 -15.236696,-4.25414 -18.671574,-3.64667 -5.60973,-0.0877 -21.852747,-0.25632 -23.613945,4.42758 0,0.1744 -0.08149,0.34954 -0.08149,0.51997 z m 60.452961,10.4141 c 0.335518,-2.33983 0.586709,-5.46256 0.586709,-7.63535 -0.08381,-2.34183 -1.423254,-4.77259 -2.845065,-6.5104 l 15.739972,-12.06249 c 3.8503,6.33597 7.867887,12.32048 11.974973,18.05244 l -2.84834,8.1558 -22.608249,0 z m -30.646768,-137.03859 -21.099135,-0.34347 -7.283874,-0.61193 4.43904,-0.3458 21.268088,-10.76352 c 0.837117,4.07812 1.757257,8.07025 2.675881,12.06443 z m -12.307038,-80.71744 -8.623589,-4.16516 8.373074,1.21737 c 0.08345,0.95344 0.166903,1.90885 0.250729,2.94779 z m 106.339215,268.18363 -30.56331,0.26004 3.85264,-6.94139 11.21908,-25.2588 c 5.69341,5.72799 11.47396,10.93806 17.50106,15.62364 l -2.00947,16.31656 z m 47.22365,38.10116 -28.72063,-0.69493 4.43656,-11.02153 4.01947,-26.21171 c 5.94599,2.86774 14.06835,5.64048 20.2646,7.46387 z m 21.35188,12.58491 34.6643,-0.17297 -2.2621,-4.07762 -2.51047,-35.76139 c -6.28014,1.12989 -12.64511,1.73586 -19.17505,1.73586 -1.34028,0 -2.7635,-0.0854 -4.101,-0.0854 l -3.1014,30.37287 -3.51428,7.98878 z m 61.20581,-44.8726 23.53238,0 -5.69668,-15.6231 c -5.78104,3.91061 -11.72147,7.29283 -17.75089,10.24456 l -0.0838,5.37854 z m 26.20689,7.29339 -26.29124,0 0.58673,31.85073 -2.09294,11.28004 33.24061,0 6.36262,-8.50526 -3.18107,-20.22124 -6.3631,-8.06834 -2.26161,-6.33593 z m 92.10651,-148.93353 28.88609,0 24.53153,39.0566 -35.08001,0 -6.70098,-13.80378 -11.63663,-25.25282 z m 18.33761,46.34398 35.91978,0 -7.03372,17.44893 -35.16947,-0.52044 6.28341,-16.92849 z m 30.05441,-136.17019 -5.43852,18.05247 -33.49413,-3.29722 0,0 c 1.67535,-9.1167 3.18154,-18.31641 4.35967,-27.77908 l 34.07061,12.93637 0.50237,0.0877 z m -34.32459,20.91469 31.56572,3.5592 24.70023,26.81569 -33.7425,-3.7302 -22.52345,-26.64469 z m 22.60779,33.50111 34.83162,2.68975 -1.0043,20.04877 -35.50221,-3.29722 1.67489,-19.4413 z m 17.667,-131.22458 0.16316,23.7809 -36.83972,-3.90713 c 0.42409,-8.33377 0.5816,-16.83907 0.5816,-25.34183 0,-1.30287 0,-2.60573 0,-3.81961 l 36.09407,9.28767 z m -29.72121,26.21021 31.64496,3.20774 22.77646,16.31459 -30.73011,-4.24863 -23.69131,-15.2737 z m 27.79744,22.65052 33.40465,3.03873 -0.50238,21.78458 -34.83114,-4.08112 1.92887,-20.74219 z M 43.266468,238.94616 l -2.343806,0.26331 -8.542063,20.82818 10.885869,13.6253 z m 0,73.76859 -21.018073,-6.93944 -6.865852,23.69151 27.883925,27.59856 z m 27.629504,120.555 c -0.584873,10.07008 -0.419432,18.22737 -0.419432,28.90343 0,146.50076 63.72049,266.01086 141.75864,266.01086 27.29554,0 52.91711,-14.7577 74.6879,-40.27051 -0.0838,0.0853 -0.16779,0.0853 -0.25164,0.0853 1.50619,-1.82131 3.18109,-3.81963 4.52325,-5.55146 0.0838,0 0.16315,0 0.16315,0.0835 1.09377,-1.47396 2.1824,-2.86235 3.27105,-4.33964 0.24698,-0.26236 0.33551,-0.43339 0.33551,-0.43339 l 0,0 c 0.83513,-1.12788 1.67489,-2.25436 2.51003,-3.4717 -1.5062,0.86791 -3.09676,1.64832 -4.60295,2.42928 -0.33088,0.43296 -0.58672,0.86794 -0.92459,1.30486 -0.24699,0.171 -0.41942,0.34581 -0.58673,0.60744 -0.7503,1.64691 -14.1471,16.14214 -14.1471,16.14214 0,0 0.0838,0 0.25165,0.0853 -12.98297,12.32441 -31.90125,24.04092 -55.2668,22.82552 -46.38715,-2.4313 -74.26707,-39.22763 -78.0363,-42.95775 -3.68345,-3.73418 -1.42089,-6.42547 -1.42089,-6.42547 l 14.90066,-35.40992 c -1.92422,-0.52046 -3.8503,-1.21591 -5.77637,-1.91083 -2.17679,4.60013 -12.22523,26.47219 -13.98076,29.77143 -2.00994,3.73165 -6.02894,0.69293 -6.02894,0.69293 0,0 -4.35547,-6.16494 -5.52658,-8.85224 -1.08911,-2.68975 1.17111,-7.20438 1.17111,-7.20438 l 11.38826,-20.91666 c -1.75925,-1.12592 -3.51617,-2.25633 -5.19014,-3.55919 l -11.55601,23.26036 C 94.844503,592.96485 82.202197,523.96831 82.202197,464.69002 l 70.416313,-5.03356 c 2.5128,-2.86774 8.45837,-8.50678 10.55175,-9.63269 l -80.465694,5.89903 0,-24.04092 -11.807204,1.38788 z M 318.07077,638.52684 c 1.08398,-2.42927 2.2621,-4.85858 3.34561,-7.37483 L 277.71211,505.13298 c 5.77592,-12.93043 9.71288,-27.25065 11.38825,-42.00635 l -9.54419,0.52045 c -2.2616,12.5864 -6.19393,25.1693 -11.13984,36.88577 l 47.8104,136.7801 c 0.33554,0.78047 1.00894,1.13187 1.84404,1.21389 z m 6.10958,-13.88381 c 18.59115,-45.04504 29.64153,-101.37014 29.64153,-162.46985 0,-1.21733 -0.16316,-1.73584 -0.16316,-2.86623 l -48.48148,2.94977 c -1.51131,19.01178 -8.03799,42.96172 -15.8276,56.41604 l 34.83165,105.97027 z M 202.35547,51.392976 l 0,43.659668 8.6233,4.767131 0,-43.480745 -8.6233,-4.946054 z m -4.52044,40.88093 0,-43.744189 -9.29534,-5.815981 0,43.485684 9.29534,6.074486 z m -14.48965,-4.946076 -0.16316,-47.213888 -10.63282,-6.596435 0,52.50793 6.27736,3.817686 4.52044,-2.515293 z m -68.15425,-63.617973 -21.434787,10.235166 0,58.676828 21.434787,-8.077762 z m -26.794076,12.75541 -16.075991,7.640324 0,56.584099 16.075991,-5.985013 z m -21.435277,10.240117 -18.42147,8.768713 0,54.153323 18.42147,-6.84995 z m -18.42147,69.607956 0,57.89141 18.42147,-6.24846 0,-58.58738 -18.42147,6.94443 z m 0,64.48784 0,58.92538 18.42147,-4.51358 0,-60.66525 -18.42147,6.25345 z m 0,65.43733 0,55.80366 18.42147,-3.29573 0,-57.02154 -18.42147,4.51361 z m 0,62.22608 0,59.4523 18.42147,-2.68924 0,-60.05877 -18.42147,3.29571 z m 0,112.57017 0,5.63905 -9.963429,1.0429 c 0,0 3.683467,-2.5168 9.963429,-6.68195 z m 18.42147,3.81767 0,-15.53265 c 1.675838,-1.04389 3.514763,-2.0878 5.359286,-3.21617 l 0,18.22642 -5.359286,0.5224 z m 21.435277,-2.17077 0,-25.86378 c 1.757382,-0.95441 3.516635,-1.90884 5.359289,-2.86325 l 0,28.20455 -5.359289,0.52248 z m 26.794076,-2.77676 0,-21.61062 5.35744,2.08282 0,19.00735 -5.35744,0.52045 z m 0,-30.81184 0,-6.07444 c 1.75553,-0.78045 3.51663,-1.6504 5.35744,-2.43079 l 0,10.58807 -5.35744,-2.08284 z m 32.15198,27.60209 0,-5.81549 11.63897,4.59813 -11.63897,1.21736 z m 0,-15.18965 0,-31.67477 c 0.66968,-0.26329 1.42323,-0.52692 2.17867,-0.7854 l 20.01155,41.05492 -22.19022,-8.59475 z m 0,-48.25778 0,-62.40011 -26.79454,4.7721 0,61.62461 26.79454,-3.9966 z m 0,-68.82254 0,-62.31555 -26.79454,6.51189 0,60.57577 26.79454,-4.77211 z m 0,-68.82751 0,-68.30054 -26.79454,9.02719 0,65.78531 26.79454,-6.51196 z m 0,-74.98147 0,-61.535164 -26.79454,10.155616 0,60.491248 26.79454,-9.1117 z m -32.15198,217.40857 0,-61.45065 -21.434787,3.82265 0,60.8392 21.434787,-3.2112 z m -26.794076,3.99166 0,-60.66522 -16.075991,2.86325 0,60.14326 16.075991,-2.34129 z m 26.794076,-71.86473 0,-60.22776 -21.434787,5.28904 0,58.76137 21.434787,-3.82265 z m -26.794076,4.77705 0,-58.40843 -16.075991,3.90222 0,57.36949 16.075991,-2.86328 z m 26.794076,-71.43223 0,-65.34784 -21.434787,7.28737 0,63.26996 21.434787,-5.20949 z m -26.794076,6.51188 0,-62.748 -16.075991,5.46799 0,61.18218 16.075991,-3.90217 z m 26.794076,-78.46114 0,-60.317264 -21.434787,8.07278 0,59.536834 21.434787,-7.29235 z m -26.794076,9.11667 0,-59.36779 -16.075991,6.07447 0,58.75641 16.075991,-5.46309 z M 350.30758,32.995568 l 28.97043,17.875459 0,33.762555 -28.97043,-51.638014 z m -1.84453,162.902302 40.77669,-10.32457 -40.77669,-68.91202 z m 59.53697,-14.5797 12.97414,-3.7282 16.74706,9.71815 0,-157.782261 -29.7212,-15.539134 z M 222.44905,113.1021 187.78428,94.093255 l 0,143.381485 34.66477,-8.76873 z m 25.45613,109.26597 25.28836,-6.5069 0,-26.12227 -25.37177,-16.66752 0.0838,49.29669 z m 6.3631,-55.71415 21.68414,14.14726 c 13.14794,-3.39019 29.05476,-7.46634 34.58275,-21.78755 l 0,-73.077676 -26.46042,-14.753715 0,81.408931 c -0.5019,5.98998 -14.1471,10.84656 -29.80647,14.06275 z m -7.03465,-69.175466 10.79967,-4.424115 0,42.874281 -10.79967,4.33959 z m 168.46653,357.488876 28.46339,6.68143 26.29637,-2.77474 -28.29981,-7.89884 -26.45995,3.99215 z m 29.30363,-11.97497 33.24527,11.10509 0.33089,-20.74024 -32.6539,-12.40993 -0.92458,22.04508 z m -3.93698,-30.72482 0,-18.13889 -33.48946,-12.93437 c -0.49678,0.26378 -1.08349,0.6114 -1.59055,0.9544 0.58674,9.89711 0.67109,19.79425 0.247,29.59891 l 1.00429,0.51995 33.82735,0 z m -26.70881,-36.27783 28.97557,12.32295 32.23118,-13.01887 -34.57762,-14.49029 c -6.86502,5.0306 -17.92006,10.15066 -26.62913,15.18621 z m 29.05478,-22.22005 34.66758,15.36516 0,-19.35679 -33.40979,-14.84323 -1.25779,18.83486 z m -14.48031,-103.19153 37.17293,21.60864 0,14.14725 -36.92407,-21.09169 -0.24701,-14.6642 z m 35.49756,42.5263 -26.78849,26.03773 -33.91169,-18.74539 25.53582,-26.55967 35.16436,19.26733 z m -65.47228,14.23178 34.74215,18.40239 -0.16316,2.60474 -10.46879,0.78046 -23.69175,5.20949 c 0.50235,-9.02716 0.33552,-17.96989 -0.41942,-26.99708 z M 147.92937,612.05813 c 0,0 7.11898,-2.25973 4.10288,-3.99215 -3.01703,-1.73382 -9.54746,-1.73382 -12.14181,-3.46968 -2.59387,-1.82533 -3.3493,-3.99418 0.33555,-4.4291 3.76873,-0.52045 4.68961,-1.38637 5.02142,-4.94607 0.41941,-3.5572 0,-16.83905 0,-16.83905 0,0 -2.59436,-2.51623 -5.35744,-4.33761 0.25166,5.29502 0.41944,8.15729 -0.0838,6.33593 -0.25164,0.52047 -1.75785,-3.73216 -3.09767,-8.07381 -0.25166,-0.0854 -0.58858,-0.17279 -0.83697,-0.17279 -0.1678,0 -0.41941,-0.0877 -0.50237,-0.0877 -2.00811,-0.34579 -3.93839,-0.6929 -5.77871,-1.04092 0.92179,8.15981 1.84032,13.54035 1.17252,11.1091 -0.33554,0.69688 -2.68011,-6.68345 -4.27205,-11.80402 -1.58821,-0.34581 -3.01332,-0.78042 -4.35174,-1.12641 1.84268,7.8118 3.26449,13.45284 1.591,12.4974 -0.50143,0.86795 -3.7692,-9.11266 -5.1929,-13.62527 -6.11285,-2.16888 -9.54559,-4.60011 -9.54559,-7.20194 0,-2.34578 2.76538,-4.60002 7.70479,-6.51288 -0.16779,-2.25434 -0.33554,-4.51064 -0.33554,-5.72604 0,-2.60619 -0.33552,-8.41976 -0.33552,-8.41976 0,0 2.59574,-5.728 3.77104,-9.28369 1.08724,-3.56312 5.18825,-0.87191 1.08724,4.85663 -2.84832,3.56314 -2.84832,10.32805 -1.84264,17.70689 1.67349,-0.60591 3.60002,-1.12833 5.69528,-1.65026 -0.0838,-1.12648 -0.0838,-2.08184 -0.0838,-2.77677 0,-2.60229 1.08955,-5.29358 1.08955,-5.29358 0,0 1.17065,-8.85223 2.25836,-12.41193 1.08909,-3.55715 11.9745,-10.67352 3.77107,-0.43106 -2.84881,3.46825 -3.68579,11.4545 -3.51708,20.13227 2.00764,-0.52047 4.18444,-0.86596 6.5304,-1.30087 0,-0.78049 0,-1.47394 0,-1.99784 0,-2.6898 1.50664,-3.99067 1.50664,-3.99067 0,0 2.59623,-15.10114 3.7669,-18.66037 1.08956,-3.47168 11.97496,-10.58658 3.68579,-0.43293 -3.09908,3.9051 -4.18631,13.88576 -4.43887,24.38687 4.85643,-0.69343 10.13227,-1.3029 15.74417,-1.64887 2.50999,-11.88952 8.45415,-18.57091 14.06415,-28.381 -15.4063,-5.64449 -25.20075,-23.69548 -25.36945,-33.32617 -23.78078,13.01542 -39.60231,39.14214 -39.60231,69.17147 0,42.78481 33.1558,77.76378 73.93063,77.76378 25.70731,0 77.53532,-24.90882 67.23804,-65.43732 -4.02134,1.55885 -10.46831,3.0328 -16.91671,4.25062 -1.9228,4.07966 -6.86408,14.6658 -7.36738,13.80177 -3.01333,1.38644 0.5033,-5.21146 2.93454,-13.02129 -3.60424,0.60594 -7.45496,1.04241 -11.5574,1.4773 0,0.0853 -0.0838,0.17297 -0.0838,0.26052 -2.26396,3.03674 -5.61187,6.59444 -5.61187,6.59444 0,0 1.0877,10.67756 -1.50853,11.11052 -2.67965,0.43106 -3.76922,2.6893 -3.76922,2.6893 l -7.11432,9.71865 c 0,0 -2.59622,3.99411 -6.02897,5.72653 -3.34977,1.82482 -5.946,9.37865 -5.946,9.37865 39.68992,4.85807 57.18915,-39.32106 56.43745,-41.14042 0,0 4.51857,-1.30091 0.33551,6.6834 -8.53988,26.29571 -30.64528,41.6569 -63.05126,41.83184 -6.61381,-0.17474 -9.46029,-0.26049 -9.29299,-1.56332 -4.18491,2.77874 -4.85692,-5.12253 -4.85692,-5.12253 l 5.10718,-7.80788 c 0,0 2.1768,-2.69124 2.9299,-11.54347 0.33553,-3.99217 2.68197,-6.9419 5.0256,-8.93822 -0.58672,0.26051 -1.08958,0.43294 -1.59242,0.51846 -3.01377,0.43899 -7.11665,9.28769 -6.78064,12.41391 0.41942,3.12619 -1.50665,7.54932 -4.85643,8.85074 -3.34934,1.3864 -4.10522,6.68341 -4.10522,6.68341 0,0 -3.8503,2.16883 -7.53377,2.16883 -2.51233,0.0894 -29.05477,-15.70666 -19.34187,-17.35949 5.19197,-0.86596 17.16506,7.20583 17.16506,7.20583 z m 267.01489,-366.68955 0,-8.67924 -18.42195,-9.80764 -17.08027,9.54913 c 3.68859,9.54919 6.19861,18.91938 7.70478,29.1595 l 27.79744,-20.22175 z M 279.88938,374.9508 c 1.83893,4.85658 5.10483,12.05945 7.62044,27.50912 l -9.54419,0.9544 c -0.1678,-3.90715 -6.44743,-25.3418 -10.96834,-31.85371 l 12.89209,3.39019 z m 23.60696,25.68974 c -0.16316,-3.12669 -2.00344,-13.54079 -4.76745,-20.22672 27.71822,7.98333 48.89906,15.70817 48.89906,15.70817 l -44.13161,4.51855 z m -57.6878,-20.31121 c 3.2659,4.94606 7.28535,11.36853 10.46972,25.25729 l -12.98066,1.38688 c -1.84265,-7.29236 -4.26786,-15.53913 -8.03894,-19.78927 l 10.54988,-6.8549 z m -39.01653,-90.9581 57.68827,-13.01884 -22.10309,56.41508 c -7.95363,-0.78041 -15.65843,-1.65035 -23.19451,-1.56087 l -12.39067,-41.83537 z m -36.75955,17.622 0,-9.54917 15.32475,0 0,9.71814 c -3.60004,-0.78041 -11.21954,-0.9544 -15.32475,-0.16922 z m 24.19879,9.10671 1.75924,-1.72988 11.38824,36.96882 c -2.00996,-0.16923 -5.19197,-0.25867 -7.20193,-0.43247 l -7.78633,-25.42632 c 1.42324,-2.17227 3.76872,-6.51191 1.84078,-9.38015 z m 54.67589,214.20232 c -3.76455,-11.19452 -9.62901,-19.69926 -17.4969,-28.98897 -13.39821,-14.9262 -32.40455,-24.21387 -53.33886,-24.21387 -3.93371,0 -7.70293,0.34951 -11.46979,0.95537 -0.0838,2.94779 0.25165,6.07599 1.84264,7.63737 24.11493,16.57651 60.1172,19.09134 80.46291,44.6101 z m -103.32327,-59.36579 -32.32068,1.9963 c -1.5882,12.67191 -0.16316,37.49126 -0.16316,37.49126 l -0.1678,1.30287 c 7.53611,-12.40946 18.08598,-22.56506 30.73062,-29.24496 -0.0838,-4.16663 0.41476,-7.81131 1.92421,-11.54547 z m 40.35959,-141.29571 c -0.41941,-0.25864 -0.92177,-0.43247 -1.33933,-0.69097 -2.00997,-1.04391 -5.1948,-3.12672 -6.86641,-2.95275 -1.34169,0.17386 -5.10671,1.99832 -7.28538,2.68929 l 0,23.34845 c 2.59622,-0.34811 5.19199,-0.6959 7.78634,-0.86494 2.42941,-0.26329 4.94174,-0.34812 7.45454,-0.43247 l 0.25166,-21.09661 z m 2.09153,-5.20456 c -3.18062,-0.78539 -7.61951,-4.16567 -10.63328,-3.81766 -1.25454,0.17385 -5.10671,2.16732 -6.44651,2.34128 -1.34029,0.0894 -6.19629,-0.3481 -7.03139,-3.29572 -0.75496,-2.95271 -0.92228,-2.17228 0.16316,-5.03552 1.33982,-1.99833 3.85264,-5.20956 6.86641,-4.85663 3.60189,-0.78541 13.9826,-0.26332 15.57314,0.69097 1.67537,1.03892 4.69101,3.90714 4.69101,7.55086 0,3.55916 -3.18436,6.42242 -3.18436,6.42242 z m -14.06649,6.42241 -1.92421,0 0,14.49523 1.92421,0 z m 0,16.40408 -1.92421,0 0,1.64539 1.92421,0 z m -4.68914,41.13446 5.77872,0 0,-25.60026 c 2.34363,-0.34813 4.60383,-0.61144 6.7825,-0.78046 1.33984,-0.0894 2.76355,-0.17385 4.10288,-0.26332 l -0.41941,26.99216 -7.70479,18.91939 -8.54175,-19.26732 z m -1.75736,-24.21339 0,20.48519 -8.28919,-18.48687 c 2.84835,-0.78046 5.61185,-1.47635 8.28919,-1.99832 z m 3.26401,1.99832 -2.17261,0 0,2.51528 2.17261,0 z m 0,10.84655 -2.17261,0 0,8.51025 2.17261,0 z m 17.58499,73.86107 -0.33553,17.18449 c 0,0 16.74752,-1.47586 15.99255,-12.1514 -0.75402,-11.11108 -8.3712,-17.96351 -17.58076,-17.88192 -14.31907,0 -26.45905,-1.64639 -32.07044,-11.45452 l -16.2433,2.34376 c -3.26587,5.12454 -1.25405,13.10684 3.7669,14.58075 4.10335,0.86989 13.48256,3.12422 16.83001,3.12422 3.35118,0 23.19405,1.30488 23.19405,1.30488 3.01377,0.171 6.5304,1.12441 6.44697,2.94974 z m -32.48612,-26.12473 c 5.52473,6.16345 11.97078,9.80813 19.84286,9.80813 l 10.21572,0 0.25166,-12.93237 -30.30931,3.12424 z m 201.2029,-27.16663 -326.130311,33.5006 c 0,0 88.337031,-67.34763 150.212991,-72.38322 65.47878,-5.12002 175.91732,38.88262 175.91732,38.88262 z m -132.71311,-33.5886 c 5.1095,1.13339 14.90346,8.33132 15.911,10.41913 l -10.30054,6.33293 c -5.94368,-6.33293 -15.07263,-12.40744 -24.19644,-14.9277 l 1.67349,-3.64865 c 5.52424,0.43759 11.21953,1.0439 16.91249,1.82429 z m -32.57095,48.08332 66.48217,-41.91933 c -1.84267,-0.43248 -3.60191,-0.78045 -5.44458,-1.1284 l -68.82392,43.13525 -0.33553,0.78041 -0.91994,0.0877 9.04042,-0.95545 z m -20.76513,1.04092 0.50285,1.0444 2.42706,-0.26193 -21.6021,-45.73601 c 1.50667,-0.43758 2.93222,-0.95441 4.43889,-1.39184 l 21.01584,46.7804 -13.64893,1.3904 -63.4665,-24.73786 c 1.59054,-0.7804 3.18297,-1.64535 4.85645,-2.43079 l 65.47644,25.34331 z m -20.26228,-44.43662 c -0.0838,0 -0.16779,0 -0.16779,0 0,0 0.0838,0 0.16779,0 z m 54.42378,-6.68093 -23.94623,51.11755 -3.34931,0.43478 21.43528,-51.81596 c 0.16779,0 7.95549,0.43246 5.86026,0.26327 z m 169.46986,37.5802 -360.710609,36.36487 c 0,0 96.876329,-75.67995 165.118199,-80.79997 72.5097,-5.81599 195.59241,44.4351 195.59241,44.4351 z m -155.65223,151.96777 0,18.13992 c 2.00762,-0.17421 3.9337,-0.43293 5.77685,-0.69495 1.17297,-4.86006 1.5071,-9.7226 -0.58629,-13.27981 -1.08768,-1.47586 -1.59052,-2.77677 -1.75923,-3.81569 -1.08958,-0.089 -2.26023,-0.26004 -3.43133,-0.34952 z m -6.69724,18.83337 c 0.1678,-4.77307 0.24697,-15.88161 -0.83885,-19.61181 -1.84266,-0.17476 -3.76874,-0.34952 -5.69294,-0.43293 -1.0896,2.42675 -1.50667,4.68359 0.1678,5.81152 3.34742,2.2563 1.50665,10.24107 -1.173,11.54197 -0.92041,0.43714 -2.00809,1.65233 -3.01333,3.38423 3.68346,-0.17065 7.19963,-0.43107 10.55129,-0.69298 z m -18.92435,-42.17933 c -8.03892,4.94609 -4.9417,-0.26005 -5.02513,18.31095 0.41942,0 0.75308,0 1.17252,0 0.66829,-1.5609 1.42323,-2.77482 1.42323,-2.77482 0,0 6.36543,-2.69123 7.4508,-10.67552 0.16779,-1.21787 0.58814,-2.08384 1.00382,-2.60231 -1.75552,-0.86791 -4.26832,-1.47734 -6.02524,-2.2583 z m 15.82341,7.37884 c 0.50284,2.59982 1.00384,6.25047 0.0838,8.15729 -0.50098,0.95343 -1.25593,2.25437 -2.0934,3.73021 5.77686,0.52044 11.22143,1.1304 16.07599,1.91279 0.41943,-0.26049 0.83931,-0.17706 1.25827,0.17422 4.10521,0.60597 9.12662,1.73239 12.39067,2.51481 -3.93606,-5.99046 -15.40586,-11.97498 -27.71496,-16.48958 z M 244.89,564.14931 c -0.33553,-3.12468 -2.76352,-7.02737 -4.77115,-8.9402 -3.85451,-1.30088 -7.95551,-1.82332 -11.80813,-2.42933 l 0,0 c -0.75311,-0.0847 -1.59196,-0.26002 -2.42893,-0.34577 0.83697,2.42929 1.92468,4.68765 2.76725,7.02942 0.16316,2.08333 0.33088,3.8172 0.33088,3.8172 l 0,5.03309 c 6.70096,-1.12398 12.64512,-2.60182 15.91103,-4.16469 z m -105.16593,5.20954 c -0.2563,-5.12052 -0.41941,-11.37099 -0.41941,-17.53394 4.60758,-0.60796 9.71102,-1.12641 15.15745,-1.47188 -0.92041,4.42112 -1.92422,9.37069 -2.84833,13.79628 -1.50713,7.55137 -8.20578,4.86006 -10.0489,4.86006 -0.41943,0 -1.08724,0.17439 -1.84032,0.34954 z m -5.02373,-16.92452 c -0.1678,2.94978 -0.25165,5.98652 -0.25165,5.98652 l -0.41944,5.29501 c 0,0 0.67016,2.34378 1.59289,5.20805 -2.26068,-0.26003 -4.35595,-0.60993 -6.36543,-0.95543 -0.41944,-4.51259 -0.83933,-9.54763 -1.00431,-14.49321 2.00814,-0.34768 4.10103,-0.69549 6.44701,-1.04094 z m -9.79631,1.73236 c 0.25165,3.04072 0.50099,5.98801 0.50099,5.98801 l -0.41945,5.29948 c 0,0 0.16779,0.69494 0.50285,1.73584 -1.42276,-0.34951 -2.84648,-0.69738 -4.10288,-1.0409 -0.75356,-3.3032 -1.50666,-6.94385 -2.00951,-10.41956 1.59196,-0.52045 3.43461,-1.04092 5.528,-1.56287 z m -8.03892,2.43481 c 0.16779,1.81935 0.25164,3.12222 0.25164,3.12222 l 0.67248,5.20605 c -3.51708,-1.29891 -5.44317,-2.77476 -5.44317,-4.33814 0,-1.38636 1.59053,-2.6893 4.52045,-3.99013 z m 88.08425,17.79043 c -1.50853,0.0877 -3.0133,0.17296 -4.60573,0.25818 -0.92226,3.03872 -1.50665,6.94139 -1.17111,11.71646 0.75357,10.58859 -7.45221,12.84835 -10.13185,13.71478 -2.5939,0.86793 -7.45267,0.43293 -8.20576,4.86007 -0.75171,4.42514 -3.01378,7.98484 -4.85644,8.85077 -1.42137,0.69493 -2.92991,3.73368 -5.52613,6.7689 3.85216,-2.42529 9.54557,-4.86007 10.38257,-5.81548 1.84266,-2.2543 5.27774,-7.98083 5.27774,-7.98083 0,0 1.83846,-2.69324 5.94366,-3.99414 4.10288,-1.38835 7.11621,-7.98481 7.11621,-7.98481 0,0 -0.33554,-5.81548 2.25835,-8.85024 2.59623,-3.12474 3.35166,-7.98878 3.35166,-7.98878 0,0 -0.0838,-1.99183 0.16779,-3.5552 z m -19.50875,0.78241 c -1.00567,0.0815 -2.00996,0.0815 -3.09904,0.0815 -0.41942,0.60994 -0.75357,0.86994 -0.75357,0.86994 0,0 -1.5048,6.24695 -1.5048,8.85467 0,1.47588 -1.17438,3.38424 -2.68149,4.86209 1.92608,-1.21939 3.4332,-1.73985 3.4332,-1.73985 0,0 5.61186,2.69326 4.5223,-7.54932 -0.25165,-1.91085 -0.16779,-3.7302 0.0838,-5.37904 z m 3.34981,-25.52074 c -0.0838,1.65086 0.33553,3.29919 2.17633,4.34212 4.85644,2.60578 -0.41943,10.15359 -0.41943,10.15359 0,0 -2.7654,2.69129 -4.35545,7.55137 -0.58672,0 -1.17252,0 -1.75923,0 1.67765,-3.90519 3.60001,-10.67605 3.85262,-22.1286 0.16779,0 0.33553,0 0.50284,0.0815" />
</svg>
